# xmcd CD database file
#
# Track frame offsets:
#	150
#	11203
#	20729
#	34670
#	50995
#	69382
#	84889
#	95539
#	105792
#	117119
#	132017
#	142690
#	157914
#	170976
#
# Disc length: 2495 seconds
#
# Revision: 0
# Processed by: cddbd v1.4PL0 Copyright (c) Steve Scherf et al.
# Submitted via: CDex 1.40Release
#
DISCID=ad09bd0e
DTITLE=Mr. and Mrs. Sippi - When The Summer Turns To Fall
DYEAR=1998
DGENRE=Blues
TTITLE0=I Fell In Love With Jackie D.
TTITLE1=Longtime Companions
TTITLE2=Guns Of Vicksburg
TTITLE3=Wildlife In The Mountains
TTITLE4=If You Only Could
TTITLE5=Tears In Your Eyes
TTITLE6=Pistol Slappin' Mama
TTITLE7=Free And Wild
TTITLE8=Long Strange Road
TTITLE9=Stickin' It Hard To The Yanks
TTITLE10=Hobo Blues
TTITLE11=The Street Of The Desperados
TTITLE12=Welcome To Gun City
TTITLE13=Keep On Rollin'
EXTD=YEAR: 1998 ID3G: 0
EXTT0=
EXTT1=
EXTT2=
EXTT3=
EXTT4=
EXTT5=
EXTT6=
EXTT7=
EXTT8=
EXTT9=
EXTT10=
EXTT11=
EXTT12=
EXTT13=
PLAYORDER=
